<svg width="138" height="32" viewBox="0 0 138 32" fill="none" xmlns="http://www.w3.org/2000/svg">
<path fill-rule="evenodd" clip-rule="evenodd" d="M40.4637 12.1881C40.0682 11.7038 39.5826 11.332 39.0065 11.0725C38.4305 10.813 37.7642 10.6834 37.0077 10.6834C36.2511 10.6834 35.5504 10.8304 34.9056 11.1244C34.2608 11.4184 33.702 11.8292 33.2291 12.3567C32.7562 12.8842 32.3866 13.5112 32.12 14.2376C31.8536 14.9641 31.7203 15.7511 31.7203 16.5985C31.7203 17.4634 31.8536 18.2547 32.12 18.9725C32.3866 19.6903 32.7519 20.3129 33.2162 20.8404C33.6804 21.3679 34.2264 21.7787 34.854 22.0728C35.4816 22.3668 36.1565 22.5138 36.8787 22.5138C37.704 22.5138 38.4348 22.3409 39.071 21.9949C39.7072 21.649 40.2316 21.1647 40.6443 20.5421L43.9973 23.0586C43.2235 24.1483 42.2434 24.9525 41.057 25.4714C39.8705 25.9903 38.6497 26.2498 37.3945 26.2498C35.9673 26.2498 34.652 26.0249 33.4483 25.5752C32.2447 25.1255 31.2045 24.4812 30.3275 23.6424C29.4506 22.8035 28.7671 21.7874 28.277 20.5939C27.787 19.4006 27.542 18.0687 27.542 16.5985C27.542 15.1284 27.787 13.7966 28.277 12.6033C28.7671 11.4098 29.4506 10.3937 30.3275 9.55481C31.2045 8.71593 32.2447 8.07166 33.4483 7.62197C34.652 7.17227 35.9673 6.94743 37.3945 6.94743C37.9103 6.94743 38.4477 6.99499 39.0065 7.09012C39.5654 7.18524 40.1156 7.33658 40.6572 7.54414C41.1989 7.75169 41.7189 8.02839 42.2176 8.37432C42.7162 8.72025 43.1633 9.14401 43.5588 9.64559L40.4637 12.1881ZM45.7515 6.16895H49.6203V25.7826H45.7515V6.16895ZM60.2729 24.2H60.2213C59.7914 24.8745 59.2198 25.3588 58.5061 25.6528C57.7926 25.9469 57.0404 26.0939 56.2494 26.0939C55.6648 26.0939 55.1016 26.0117 54.56 25.8474C54.0183 25.6831 53.5412 25.4366 53.1285 25.108C52.7158 24.7794 52.3891 24.373 52.1484 23.8887C51.9077 23.4044 51.7873 22.8422 51.7873 22.2023C51.7873 21.4759 51.9206 20.8618 52.1871 20.3602C52.4537 19.8587 52.8148 19.4435 53.2704 19.115C53.7261 18.7863 54.2462 18.5312 54.8308 18.3496C55.4154 18.168 56.0215 18.034 56.6491 17.9474C57.2768 17.861 57.9043 17.8091 58.532 17.7918C59.1595 17.7745 59.7398 17.7659 60.2729 17.7659C60.2729 17.074 60.0279 16.5249 59.5378 16.1184C59.0478 15.7119 58.4675 15.5087 57.7969 15.5087C57.1607 15.5087 56.5803 15.6428 56.0559 15.9109C55.5315 16.179 55.063 16.5465 54.6503 17.0135L52.5869 14.8861C53.3091 14.2115 54.1516 13.7056 55.1145 13.3683C56.0774 13.0311 57.0747 12.8624 58.1064 12.8624C59.2413 12.8624 60.174 13.0051 60.9049 13.2905C61.6356 13.5759 62.2202 13.9953 62.6587 14.5488C63.0971 15.1023 63.4023 15.7811 63.5743 16.5854C63.7462 17.3897 63.8322 18.3194 63.8322 19.3743V25.7825H60.2729V24.2ZM59.3188 20.2567C59.0265 20.2567 58.6611 20.2696 58.2226 20.2956C57.7842 20.3215 57.3629 20.395 56.9588 20.5161C56.5548 20.6372 56.2109 20.8188 55.9271 21.061C55.6434 21.3031 55.5016 21.6404 55.5016 22.0728C55.5016 22.5397 55.6993 22.8857 56.0948 23.1105C56.4902 23.3353 56.9029 23.4478 57.3328 23.4478C57.7111 23.4478 58.0765 23.3959 58.4289 23.2922C58.7815 23.1883 59.0953 23.0413 59.3704 22.8511C59.6455 22.6608 59.8647 22.4187 60.028 22.1246C60.1914 21.8306 60.2731 21.4847 60.2731 21.0869V20.2567H59.3188ZM73.3487 16.8838C72.7807 16.1747 72.0326 15.8201 71.1044 15.8201C70.7777 15.8201 70.4598 15.8979 70.1502 16.0536C69.8405 16.2092 69.6857 16.4773 69.6857 16.8578C69.6857 17.1692 69.8454 17.3983 70.1632 17.5453C70.481 17.6924 70.8852 17.8221 71.375 17.9345C71.8656 18.0469 72.3896 18.168 72.9486 18.2977C73.5076 18.4274 74.0316 18.6307 74.5222 18.9074C75.012 19.1841 75.4162 19.5603 75.734 20.036C76.0526 20.5116 76.2115 21.1472 76.2115 21.9428C76.2115 22.7558 76.0347 23.426 75.6826 23.9535C75.3298 24.481 74.8791 24.9048 74.3283 25.2247C73.7782 25.5447 73.1597 25.7696 72.4719 25.8993C71.7841 26.029 71.1044 26.0939 70.4338 26.0939C69.5569 26.0939 68.6711 25.9685 67.7771 25.7177C66.8832 25.4669 66.1267 25.0216 65.5077 24.3816L67.8546 21.7612C68.2156 22.2109 68.6157 22.5525 69.0541 22.786C69.4925 23.0196 70.0043 23.1362 70.5886 23.1362C71.036 23.1362 71.4402 23.0714 71.8012 22.9416C72.1622 22.812 72.3423 22.5741 72.3423 22.2282C72.3423 21.8996 72.1834 21.6531 71.8656 21.4888C71.5469 21.3245 71.1436 21.1862 70.653 21.0737C70.1632 20.9613 69.6384 20.8402 69.0802 20.7105C68.5212 20.5808 67.9963 20.3862 67.5066 20.1268C67.0168 19.8673 66.6126 19.4998 66.2943 19.0242C65.9762 18.5485 65.8172 17.9129 65.8172 17.1173C65.8172 16.3735 65.9676 15.7336 66.2685 15.1974C66.5694 14.6612 66.9647 14.2202 67.4552 13.8742C67.945 13.5284 68.5081 13.2732 69.1446 13.1089C69.7802 12.9446 70.4256 12.8624 71.0784 12.8624C71.9039 12.8624 72.7383 12.9835 73.5802 13.2256C74.4228 13.4678 75.1367 13.9002 75.7209 14.5229L73.3487 16.8838ZM85.2897 16.8838C84.7226 16.1747 83.9745 15.8201 83.0463 15.8201C82.7195 15.8201 82.4017 15.8979 82.092 16.0536C81.7823 16.2092 81.6275 16.4773 81.6275 16.8578C81.6275 17.1692 81.7864 17.3983 82.105 17.5453C82.4229 17.6924 82.8271 17.8221 83.3168 17.9345C83.8074 18.0469 84.3314 18.168 84.8904 18.2977C85.4495 18.4274 85.9735 18.6307 86.464 18.9074C86.9538 19.1841 87.358 19.5603 87.6758 20.036C87.9936 20.5116 88.1534 21.1472 88.1534 21.9428C88.1534 22.7558 87.9765 23.426 87.6245 23.9535C87.2716 24.481 86.8202 24.9048 86.2701 25.2247C85.72 25.5447 85.1007 25.7696 84.4129 25.8993C83.7251 26.029 83.0463 26.0939 82.3756 26.0939C81.4987 26.0939 80.6129 25.9685 79.719 25.7177C78.825 25.4669 78.0688 25.0216 77.4494 24.3816L79.7964 21.7612C80.1574 22.2109 80.5575 22.5525 80.9959 22.786C81.4344 23.0196 81.9461 23.1362 82.5304 23.1362C82.9778 23.1362 83.3812 23.0714 83.7422 22.9416C84.104 22.812 84.2841 22.5741 84.2841 22.2282C84.2841 21.8996 84.1252 21.6531 83.8074 21.4888C83.4888 21.3245 83.0846 21.1862 82.5948 21.0737C82.105 20.9613 81.5802 20.8402 81.0212 20.7105C80.463 20.5808 79.9382 20.3862 79.4484 20.1268C78.9578 19.8673 78.5545 19.4998 78.2358 19.0242C77.918 18.5485 77.7591 17.9129 77.7591 17.1173C77.7591 16.3735 77.909 15.7336 78.2106 15.1974C78.5113 14.6612 78.9065 14.2202 79.3963 13.8742C79.8868 13.5284 80.4499 13.2732 81.0864 13.1089C81.722 12.9446 82.3666 12.8624 83.0202 12.8624C83.8457 12.8624 84.6794 12.9835 85.522 13.2256C86.3646 13.4678 87.0785 13.9002 87.6628 14.5229L85.2897 16.8838ZM90.5008 13.1738H94.0595V14.8342H94.1117C94.2665 14.6094 94.4686 14.3802 94.718 14.1467C94.9665 13.9132 95.2591 13.7013 95.5948 13.511C95.9297 13.3208 96.2948 13.1652 96.6909 13.0441C97.0861 12.923 97.5074 12.8624 97.9548 12.8624C98.883 12.8624 99.7256 13.0225 100.482 13.3424C101.239 13.6624 101.888 14.1121 102.43 14.6915C102.971 15.2709 103.388 15.9585 103.68 16.7541C103.973 17.5497 104.119 18.4231 104.119 19.3743C104.119 20.2565 103.985 21.0997 103.719 21.9039C103.452 22.7082 103.074 23.4216 102.584 24.0443C102.094 24.667 101.496 25.1643 100.792 25.5361C100.087 25.9079 99.2872 26.0939 98.3932 26.0939C97.5848 26.0939 96.8327 25.9685 96.1359 25.7177C95.44 25.4669 94.8679 25.0388 94.4213 24.4334H94.3692V31.6978H90.5008V13.1738ZM94.059 19.4783C94.059 20.4295 94.3303 21.1992 94.8715 21.7873C95.4134 22.3754 96.1745 22.6694 97.154 22.6694C98.1344 22.6694 98.8955 22.3754 99.4366 21.7873C99.9785 21.1992 100.249 20.4295 100.249 19.4783C100.249 18.527 99.9785 17.7574 99.4366 17.1693C98.8955 16.5812 98.1344 16.2872 97.154 16.2872C96.1745 16.2872 95.4134 16.5812 94.8715 17.1693C94.3303 17.7574 94.059 18.527 94.059 19.4783ZM106.44 6.16895H110.31V25.7826H106.44V6.16895ZM125.165 25.7828H121.451V24.0705H121.399C121.262 24.3126 121.086 24.5547 120.87 24.7969C120.656 25.039 120.394 25.2552 120.084 25.4455C119.774 25.6358 119.422 25.7914 119.026 25.9125C118.631 26.0335 118.202 26.0941 117.737 26.0941C116.757 26.0941 115.961 25.9428 115.351 25.6401C114.741 25.3373 114.268 24.918 113.933 24.3818C113.597 23.8456 113.374 23.2143 113.262 22.4879C113.151 21.7614 113.094 20.9744 113.094 20.1269V13.174H116.963V19.3487C116.963 19.7119 116.976 20.0881 117.002 20.4772C117.028 20.8664 117.106 21.2253 117.234 21.5539C117.363 21.8825 117.561 22.1506 117.828 22.3582C118.094 22.5657 118.476 22.6695 118.975 22.6695C119.474 22.6695 119.878 22.5787 120.188 22.397C120.497 22.2155 120.734 21.9733 120.897 21.6706C121.06 21.368 121.167 21.0264 121.219 20.6459C121.271 20.2653 121.297 19.8675 121.297 19.4524V13.174H125.165V25.7828ZM134.991 16.8838C134.423 16.1747 133.676 15.8201 132.747 15.8201C132.42 15.8201 132.102 15.8979 131.793 16.0536C131.483 16.2092 131.328 16.4773 131.328 16.8578C131.328 17.1692 131.488 17.3983 131.806 17.5453C132.124 17.6924 132.528 17.8221 133.018 17.9345C133.508 18.0469 134.032 18.168 134.591 18.2977C135.15 18.4274 135.674 18.6307 136.165 18.9074C136.654 19.1841 137.059 19.5603 137.376 20.036C137.695 20.5116 137.854 21.1472 137.854 21.9428C137.854 22.7558 137.678 23.426 137.325 23.9535C136.972 24.481 136.522 24.9048 135.971 25.2247C135.421 25.5447 134.802 25.7696 134.114 25.8993C133.427 26.029 132.747 26.0939 132.076 26.0939C131.199 26.0939 130.314 25.9685 129.42 25.7177C128.526 25.4669 127.769 25.0216 127.15 24.3816L129.497 21.7612C129.858 22.2109 130.258 22.5525 130.697 22.786C131.135 23.0196 131.647 23.1362 132.231 23.1362C132.678 23.1362 133.083 23.0714 133.444 22.9416C133.805 22.812 133.985 22.5741 133.985 22.2282C133.985 21.8996 133.826 21.6531 133.508 21.4888C133.189 21.3245 132.786 21.1862 132.295 21.0737C131.806 20.9613 131.281 20.8402 130.723 20.7105C130.164 20.5808 129.639 20.3862 129.149 20.1268C128.659 19.8673 128.255 19.4998 127.936 19.0242C127.619 18.5485 127.46 17.9129 127.46 17.1173C127.46 16.3735 127.611 15.7336 127.911 15.1974C128.212 14.6612 128.607 14.2202 129.098 13.8742C129.588 13.5284 130.151 13.2732 130.787 13.1089C131.423 12.9446 132.068 12.8624 132.721 12.8624C133.546 12.8624 134.381 12.9835 135.223 13.2256C136.065 13.4678 136.779 13.9002 137.363 14.5229L134.991 16.8838Z" fill="black"/>
<path fill-rule="evenodd" clip-rule="evenodd" d="M40.4637 12.1881C40.0682 11.7038 39.5826 11.332 39.0065 11.0725C38.4305 10.813 37.7642 10.6834 37.0077 10.6834C36.2511 10.6834 35.5504 10.8304 34.9056 11.1244C34.2608 11.4184 33.702 11.8292 33.2291 12.3567C32.7562 12.8842 32.3866 13.5112 32.12 14.2376C31.8536 14.9641 31.7203 15.7511 31.7203 16.5985C31.7203 17.4634 31.8536 18.2547 32.12 18.9725C32.3866 19.6903 32.7519 20.3129 33.2162 20.8404C33.6804 21.3679 34.2264 21.7787 34.854 22.0728C35.4816 22.3668 36.1565 22.5138 36.8787 22.5138C37.704 22.5138 38.4348 22.3409 39.071 21.9949C39.7072 21.649 40.2316 21.1647 40.6443 20.5421L43.9973 23.0586C43.2235 24.1483 42.2434 24.9525 41.057 25.4714C39.8705 25.9903 38.6497 26.2498 37.3945 26.2498C35.9673 26.2498 34.652 26.0249 33.4483 25.5752C32.2447 25.1255 31.2045 24.4812 30.3275 23.6424C29.4506 22.8035 28.7671 21.7874 28.277 20.5939C27.787 19.4006 27.542 18.0687 27.542 16.5985C27.542 15.1284 27.787 13.7966 28.277 12.6033C28.7671 11.4098 29.4506 10.3937 30.3275 9.55481C31.2045 8.71593 32.2447 8.07166 33.4483 7.62197C34.652 7.17227 35.9673 6.94743 37.3945 6.94743C37.9103 6.94743 38.4477 6.99499 39.0065 7.09012C39.5654 7.18524 40.1156 7.33658 40.6572 7.54414C41.1989 7.75169 41.7189 8.02839 42.2176 8.37432C42.7162 8.72025 43.1633 9.14401 43.5588 9.64559L40.4637 12.1881ZM45.7515 6.16895H49.6203V25.7826H45.7515V6.16895ZM60.2729 24.2H60.2213C59.7914 24.8745 59.2198 25.3588 58.5061 25.6528C57.7926 25.9469 57.0404 26.0939 56.2494 26.0939C55.6648 26.0939 55.1016 26.0117 54.56 25.8474C54.0183 25.6831 53.5412 25.4366 53.1285 25.108C52.7158 24.7794 52.3891 24.373 52.1484 23.8887C51.9077 23.4044 51.7873 22.8422 51.7873 22.2023C51.7873 21.4759 51.9206 20.8618 52.1871 20.3602C52.4537 19.8587 52.8148 19.4435 53.2704 19.115C53.7261 18.7863 54.2462 18.5312 54.8308 18.3496C55.4154 18.168 56.0215 18.034 56.6491 17.9474C57.2768 17.861 57.9043 17.8091 58.532 17.7918C59.1595 17.7745 59.7398 17.7659 60.2729 17.7659C60.2729 17.074 60.0279 16.5249 59.5378 16.1184C59.0478 15.7119 58.4675 15.5087 57.7969 15.5087C57.1607 15.5087 56.5803 15.6428 56.0559 15.9109C55.5315 16.179 55.063 16.5465 54.6503 17.0135L52.5869 14.8861C53.3091 14.2115 54.1516 13.7056 55.1145 13.3683C56.0774 13.0311 57.0747 12.8624 58.1064 12.8624C59.2413 12.8624 60.174 13.0051 60.9049 13.2905C61.6356 13.5759 62.2202 13.9953 62.6587 14.5488C63.0971 15.1023 63.4023 15.7811 63.5743 16.5854C63.7462 17.3897 63.8322 18.3194 63.8322 19.3743V25.7825H60.2729V24.2ZM59.3188 20.2567C59.0265 20.2567 58.6611 20.2696 58.2226 20.2956C57.7842 20.3215 57.3629 20.395 56.9588 20.5161C56.5548 20.6372 56.2109 20.8188 55.9271 21.061C55.6434 21.3031 55.5016 21.6404 55.5016 22.0728C55.5016 22.5397 55.6993 22.8857 56.0948 23.1105C56.4902 23.3353 56.9029 23.4478 57.3328 23.4478C57.7111 23.4478 58.0765 23.3959 58.4289 23.2922C58.7815 23.1883 59.0953 23.0413 59.3704 22.8511C59.6455 22.6608 59.8647 22.4187 60.028 22.1246C60.1914 21.8306 60.2731 21.4847 60.2731 21.0869V20.2567H59.3188ZM73.3487 16.8838C72.7807 16.1747 72.0326 15.8201 71.1044 15.8201C70.7777 15.8201 70.4598 15.8979 70.1502 16.0536C69.8405 16.2092 69.6857 16.4773 69.6857 16.8578C69.6857 17.1692 69.8454 17.3983 70.1632 17.5453C70.481 17.6924 70.8852 17.8221 71.375 17.9345C71.8656 18.0469 72.3896 18.168 72.9486 18.2977C73.5076 18.4274 74.0316 18.6307 74.5222 18.9074C75.012 19.1841 75.4162 19.5603 75.734 20.036C76.0526 20.5116 76.2115 21.1472 76.2115 21.9428C76.2115 22.7558 76.0347 23.426 75.6826 23.9535C75.3298 24.481 74.8791 24.9048 74.3283 25.2247C73.7782 25.5447 73.1597 25.7696 72.4719 25.8993C71.7841 26.029 71.1044 26.0939 70.4338 26.0939C69.5569 26.0939 68.6711 25.9685 67.7771 25.7177C66.8832 25.4669 66.1267 25.0216 65.5077 24.3816L67.8546 21.7612C68.2156 22.2109 68.6157 22.5525 69.0541 22.786C69.4925 23.0196 70.0043 23.1362 70.5886 23.1362C71.036 23.1362 71.4402 23.0714 71.8012 22.9416C72.1622 22.812 72.3423 22.5741 72.3423 22.2282C72.3423 21.8996 72.1834 21.6531 71.8656 21.4888C71.5469 21.3245 71.1436 21.1862 70.653 21.0737C70.1632 20.9613 69.6384 20.8402 69.0802 20.7105C68.5212 20.5808 67.9963 20.3862 67.5066 20.1268C67.0168 19.8673 66.6126 19.4998 66.2943 19.0242C65.9762 18.5485 65.8172 17.9129 65.8172 17.1173C65.8172 16.3735 65.9676 15.7336 66.2685 15.1974C66.5694 14.6612 66.9647 14.2202 67.4552 13.8742C67.945 13.5284 68.5081 13.2732 69.1446 13.1089C69.7802 12.9446 70.4256 12.8624 71.0784 12.8624C71.9039 12.8624 72.7383 12.9835 73.5802 13.2256C74.4228 13.4678 75.1367 13.9002 75.7209 14.5229L73.3487 16.8838ZM85.2897 16.8838C84.7226 16.1747 83.9745 15.8201 83.0463 15.8201C82.7195 15.8201 82.4017 15.8979 82.092 16.0536C81.7823 16.2092 81.6275 16.4773 81.6275 16.8578C81.6275 17.1692 81.7864 17.3983 82.105 17.5453C82.4229 17.6924 82.8271 17.8221 83.3168 17.9345C83.8074 18.0469 84.3314 18.168 84.8904 18.2977C85.4495 18.4274 85.9735 18.6307 86.464 18.9074C86.9538 19.1841 87.358 19.5603 87.6758 20.036C87.9936 20.5116 88.1534 21.1472 88.1534 21.9428C88.1534 22.7558 87.9765 23.426 87.6245 23.9535C87.2716 24.481 86.8202 24.9048 86.2701 25.2247C85.72 25.5447 85.1007 25.7696 84.4129 25.8993C83.7251 26.029 83.0463 26.0939 82.3756 26.0939C81.4987 26.0939 80.6129 25.9685 79.719 25.7177C78.825 25.4669 78.0688 25.0216 77.4494 24.3816L79.7964 21.7612C80.1574 22.2109 80.5575 22.5525 80.9959 22.786C81.4344 23.0196 81.9461 23.1362 82.5304 23.1362C82.9778 23.1362 83.3812 23.0714 83.7422 22.9416C84.104 22.812 84.2841 22.5741 84.2841 22.2282C84.2841 21.8996 84.1252 21.6531 83.8074 21.4888C83.4888 21.3245 83.0846 21.1862 82.5948 21.0737C82.105 20.9613 81.5802 20.8402 81.0212 20.7105C80.463 20.5808 79.9382 20.3862 79.4484 20.1268C78.9578 19.8673 78.5545 19.4998 78.2358 19.0242C77.918 18.5485 77.7591 17.9129 77.7591 17.1173C77.7591 16.3735 77.909 15.7336 78.2106 15.1974C78.5113 14.6612 78.9065 14.2202 79.3963 13.8742C79.8868 13.5284 80.4499 13.2732 81.0864 13.1089C81.722 12.9446 82.3666 12.8624 83.0202 12.8624C83.8457 12.8624 84.6794 12.9835 85.522 13.2256C86.3646 13.4678 87.0785 13.9002 87.6628 14.5229L85.2897 16.8838ZM90.5008 13.1738H94.0595V14.8342H94.1117C94.2665 14.6094 94.4686 14.3802 94.718 14.1467C94.9665 13.9132 95.2591 13.7013 95.5948 13.511C95.9297 13.3208 96.2948 13.1652 96.6909 13.0441C97.0861 12.923 97.5074 12.8624 97.9548 12.8624C98.883 12.8624 99.7256 13.0225 100.482 13.3424C101.239 13.6624 101.888 14.1121 102.43 14.6915C102.971 15.2709 103.388 15.9585 103.68 16.7541C103.973 17.5497 104.119 18.4231 104.119 19.3743C104.119 20.2565 103.985 21.0997 103.719 21.9039C103.452 22.7082 103.074 23.4216 102.584 24.0443C102.094 24.667 101.496 25.1643 100.792 25.5361C100.087 25.9079 99.2872 26.0939 98.3932 26.0939C97.5848 26.0939 96.8327 25.9685 96.1359 25.7177C95.44 25.4669 94.8679 25.0388 94.4213 24.4334H94.3692V31.6978H90.5008V13.1738ZM94.059 19.4783C94.059 20.4295 94.3303 21.1992 94.8715 21.7873C95.4134 22.3754 96.1745 22.6694 97.154 22.6694C98.1344 22.6694 98.8955 22.3754 99.4366 21.7873C99.9785 21.1992 100.249 20.4295 100.249 19.4783C100.249 18.527 99.9785 17.7574 99.4366 17.1693C98.8955 16.5812 98.1344 16.2872 97.154 16.2872C96.1745 16.2872 95.4134 16.5812 94.8715 17.1693C94.3303 17.7574 94.059 18.527 94.059 19.4783ZM106.44 6.16895H110.31V25.7826H106.44V6.16895ZM125.165 25.7828H121.451V24.0705H121.399C121.262 24.3126 121.086 24.5547 120.87 24.7969C120.656 25.039 120.394 25.2552 120.084 25.4455C119.774 25.6358 119.422 25.7914 119.026 25.9125C118.631 26.0335 118.202 26.0941 117.737 26.0941C116.757 26.0941 115.961 25.9428 115.351 25.6401C114.741 25.3373 114.268 24.918 113.933 24.3818C113.597 23.8456 113.374 23.2143 113.262 22.4879C113.151 21.7614 113.094 20.9744 113.094 20.1269V13.174H116.963V19.3487C116.963 19.7119 116.976 20.0881 117.002 20.4772C117.028 20.8664 117.106 21.2253 117.234 21.5539C117.363 21.8825 117.561 22.1506 117.828 22.3582C118.094 22.5657 118.476 22.6695 118.975 22.6695C119.474 22.6695 119.878 22.5787 120.188 22.397C120.497 22.2155 120.734 21.9733 120.897 21.6706C121.06 21.368 121.167 21.0264 121.219 20.6459C121.271 20.2653 121.297 19.8675 121.297 19.4524V13.174H125.165V25.7828ZM134.991 16.8838C134.423 16.1747 133.676 15.8201 132.747 15.8201C132.42 15.8201 132.102 15.8979 131.793 16.0536C131.483 16.2092 131.328 16.4773 131.328 16.8578C131.328 17.1692 131.488 17.3983 131.806 17.5453C132.124 17.6924 132.528 17.8221 133.018 17.9345C133.508 18.0469 134.032 18.168 134.591 18.2977C135.15 18.4274 135.674 18.6307 136.165 18.9074C136.654 19.1841 137.059 19.5603 137.376 20.036C137.695 20.5116 137.854 21.1472 137.854 21.9428C137.854 22.7558 137.678 23.426 137.325 23.9535C136.972 24.481 136.522 24.9048 135.971 25.2247C135.421 25.5447 134.802 25.7696 134.114 25.8993C133.427 26.029 132.747 26.0939 132.076 26.0939C131.199 26.0939 130.314 25.9685 129.42 25.7177C128.526 25.4669 127.769 25.0216 127.15 24.3816L129.497 21.7612C129.858 22.2109 130.258 22.5525 130.697 22.786C131.135 23.0196 131.647 23.1362 132.231 23.1362C132.678 23.1362 133.083 23.0714 133.444 22.9416C133.805 22.812 133.985 22.5741 133.985 22.2282C133.985 21.8996 133.826 21.6531 133.508 21.4888C133.189 21.3245 132.786 21.1862 132.295 21.0737C131.806 20.9613 131.281 20.8402 130.723 20.7105C130.164 20.5808 129.639 20.3862 129.149 20.1268C128.659 19.8673 128.255 19.4998 127.936 19.0242C127.619 18.5485 127.46 17.9129 127.46 17.1173C127.46 16.3735 127.611 15.7336 127.911 15.1974C128.212 14.6612 128.607 14.2202 129.098 13.8742C129.588 13.5284 130.151 13.2732 130.787 13.1089C131.423 12.9446 132.068 12.8624 132.721 12.8624C133.546 12.8624 134.381 12.9835 135.223 13.2256C136.065 13.4678 136.779 13.9002 137.363 14.5229L134.991 16.8838Z" fill="#2D2D45"/>
<path fill-rule="evenodd" clip-rule="evenodd" d="M0.682532 22.5992L14.8964 8.38534C15.1768 8.10493 15.6328 8.10648 15.915 8.38868L22.0472 14.5208C22.8939 15.3675 22.8984 16.7356 22.0573 17.5767L7.84345 31.7907C7.56304 32.071 7.10701 32.0695 6.82481 31.7872L0.692637 25.6551C-0.15398 24.8084 -0.158544 23.4403 0.682532 22.5992Z" fill="url(#paint0_linear_155_268)"/>
<path fill-rule="evenodd" clip-rule="evenodd" d="M13.4132 22.1322L0.63798 9.35687C-0.208719 8.51025 -0.213201 7.14204 0.627875 6.30096L6.71954 0.209288C6.99988 -0.0710737 7.45598 -0.0695645 7.73819 0.212658L22.0464 14.5209C22.8931 15.3676 22.8976 16.7358 22.0565 17.5769L15.9649 23.6685L13.9343 25.6991C14.7754 24.858 14.7709 23.4898 13.9242 22.6431L13.4132 22.1322Z" fill="url(#paint1_linear_155_268)"/>
<defs>
<linearGradient id="paint0_linear_155_268" x1="11.9772" y1="37.5574" x2="24.5749" y2="26.1903" gradientUnits="userSpaceOnUse">
<stop stop-color="#00749B"/>
<stop offset="1" stop-color="#005077"/>
</linearGradient>
<linearGradient id="paint1_linear_155_268" x1="-9.63501" y1="18.6095" x2="8.46824" y2="32.7146" gradientUnits="userSpaceOnUse">
<stop stop-color="#00CAF2"/>
<stop offset="1" stop-color="#009AE0"/>
</linearGradient>
</defs>
</svg>
