<svg width="160" height="37" viewBox="0 0 160 37" fill="none" xmlns="http://www.w3.org/2000/svg">
<path fill-rule="evenodd" clip-rule="evenodd" d="M47.317 13.9952C46.8629 13.4391 46.3052 13.0121 45.6437 12.7141C44.9823 12.4162 44.2173 12.2673 43.3485 12.2673C42.4798 12.2673 41.6753 12.4361 40.9348 12.7738C40.1944 13.1114 39.5527 13.5831 39.0098 14.1888C38.4668 14.7945 38.0423 15.5144 37.7363 16.3485C37.4303 17.1828 37.2773 18.0864 37.2773 19.0595C37.2773 20.0526 37.4303 20.9612 37.7363 21.7854C38.0423 22.6096 38.4618 23.3245 38.9949 23.9303C39.528 24.536 40.155 25.0077 40.8756 25.3453C41.5963 25.6829 42.3712 25.8517 43.2004 25.8517C44.1481 25.8517 44.9873 25.6531 45.7178 25.2559C46.4483 24.8587 47.0505 24.3026 47.5244 23.5877L51.3744 26.4773C50.486 27.7285 49.3605 28.652 47.9982 29.2479C46.6359 29.8436 45.234 30.1416 43.7927 30.1416C42.154 30.1416 40.6436 29.8834 39.2615 29.367C37.8794 28.8506 36.685 28.1108 35.678 27.1476C34.6711 26.1843 33.8862 25.0176 33.3235 23.6472C32.7608 22.2769 32.4795 20.7476 32.4795 19.0595C32.4795 17.3714 32.7608 15.8421 33.3235 14.4718C33.8862 13.1014 34.6711 11.9347 35.678 10.9714C36.685 10.0082 37.8794 9.26839 39.2615 8.75203C40.6436 8.23565 42.154 7.97748 43.7927 7.97748C44.3851 7.97748 45.0021 8.03209 45.6437 8.14132C46.2854 8.25055 46.9172 8.42433 47.5391 8.66266C48.1611 8.90098 48.7583 9.2187 49.3309 9.61592C49.9035 10.0131 50.4168 10.4997 50.8709 11.0757L47.317 13.9952ZM53.3881 7.08374H57.8305V29.6053H53.3881V7.08374ZM70.0621 27.788H70.0028C69.5092 28.5626 68.8528 29.1186 68.0334 29.4562C67.2141 29.794 66.3503 29.9628 65.4421 29.9628C64.7708 29.9628 64.1241 29.8683 63.5022 29.6797C62.8802 29.4911 62.3323 29.208 61.8585 28.8307C61.3846 28.4533 61.0095 27.9867 60.7331 27.4306C60.4567 26.8745 60.3184 26.229 60.3184 25.4942C60.3184 24.66 60.4715 23.955 60.7775 23.379C61.0836 22.8031 61.4982 22.3264 62.0214 21.9491C62.5447 21.5717 63.1418 21.2788 63.8131 21.0703C64.4844 20.8618 65.1804 20.7079 65.901 20.6085C66.6218 20.5092 67.3424 20.4497 68.0631 20.4298C68.7837 20.4099 69.45 20.4 70.0621 20.4C70.0621 19.6056 69.7808 18.9751 69.218 18.5083C68.6554 18.0416 67.989 17.8082 67.219 17.8082C66.4885 17.8082 65.8221 17.9621 65.2199 18.27C64.6177 18.5778 64.0797 18.9999 63.6059 19.536L61.2366 17.0933C62.0658 16.3187 63.0333 15.7378 64.139 15.3505C65.2446 14.9633 66.3898 14.7696 67.5744 14.7696C68.8775 14.7696 69.9486 14.9334 70.7877 15.2611C71.6268 15.5888 72.2981 16.0704 72.8016 16.706C73.3051 17.3415 73.6555 18.121 73.8529 19.0445C74.0504 19.9681 74.1491 21.0356 74.1491 22.247V29.6052H70.0621V27.788ZM68.9664 23.2599C68.6308 23.2599 68.2112 23.2748 67.7077 23.3046C67.2043 23.3344 66.7206 23.4188 66.2565 23.5578C65.7926 23.6969 65.3977 23.9054 65.0719 24.1835C64.7462 24.4615 64.5833 24.8488 64.5833 25.3453C64.5833 25.8815 64.8103 26.2787 65.2644 26.5368C65.7185 26.795 66.1924 26.9241 66.686 26.9241C67.1203 26.9241 67.5399 26.8645 67.9446 26.7454C68.3494 26.6262 68.7098 26.4574 69.0257 26.239C69.3416 26.0205 69.5933 25.7425 69.7808 25.4048C69.9684 25.0672 70.0622 24.67 70.0622 24.2132V23.2599H68.9664ZM85.0779 19.3872C84.4256 18.5729 83.5666 18.1657 82.5008 18.1657C82.1256 18.1657 81.7607 18.2551 81.4051 18.4338C81.0495 18.6126 80.8717 18.9204 80.8717 19.3573C80.8717 19.7149 81.0551 19.978 81.4201 20.1468C81.785 20.3156 82.2491 20.4646 82.8115 20.5936C83.3748 20.7227 83.9765 20.8618 84.6184 21.0107C85.2603 21.1596 85.862 21.393 86.4253 21.7108C86.9877 22.0286 87.4518 22.4605 87.8168 23.0067C88.1826 23.5528 88.3651 24.2827 88.3651 25.1962C88.3651 26.1297 88.162 26.8993 87.7578 27.505C87.3526 28.1108 86.8352 28.5973 86.2026 28.9647C85.571 29.3322 84.8608 29.5903 84.071 29.7393C83.2812 29.8883 82.5008 29.9628 81.7307 29.9628C80.7239 29.9628 79.7067 29.8188 78.6802 29.5307C77.6537 29.2428 76.7851 28.7314 76.0743 27.9966L78.7691 24.9877C79.1837 25.5041 79.6431 25.8963 80.1465 26.1644C80.65 26.4326 81.2376 26.5666 81.9085 26.5666C82.4222 26.5666 82.8864 26.4921 83.3009 26.3431C83.7154 26.1943 83.9222 25.9211 83.9222 25.5239C83.9222 25.1466 83.7398 24.8636 83.3748 24.6749C83.0089 24.4863 82.5458 24.3274 81.9824 24.1982C81.4201 24.0692 80.8174 23.9302 80.1765 23.7812C79.5346 23.6322 78.9319 23.4089 78.3696 23.1109C77.8072 22.813 77.3431 22.391 76.9776 21.8449C76.6123 21.2987 76.4297 20.5688 76.4297 19.6553C76.4297 18.8012 76.6024 18.0665 76.9479 17.4507C77.2935 16.835 77.7473 16.3286 78.3106 15.9314C78.873 15.5343 79.5196 15.2413 80.2504 15.0526C80.9803 14.8639 81.7214 14.7696 82.4709 14.7696C83.4188 14.7696 84.377 14.9086 85.3436 15.1866C86.3112 15.4647 87.1309 15.9612 87.8018 16.6762L85.0779 19.3872ZM98.7889 19.3872C98.1377 18.5729 97.2787 18.1657 96.2128 18.1657C95.8376 18.1657 95.4727 18.2551 95.1171 18.4338C94.7615 18.6126 94.5837 18.9204 94.5837 19.3573C94.5837 19.7149 94.7662 19.978 95.1321 20.1468C95.497 20.3156 95.9611 20.4646 96.5235 20.5936C97.0868 20.7227 97.6885 20.8618 98.3304 21.0107C98.9723 21.1596 99.574 21.393 100.137 21.7108C100.7 22.0286 101.164 22.4605 101.529 23.0067C101.894 23.5528 102.077 24.2827 102.077 25.1962C102.077 26.1297 101.874 26.8993 101.47 27.505C101.065 28.1108 100.546 28.5973 99.9146 28.9647C99.283 29.3322 98.5718 29.5903 97.7821 29.7393C96.9923 29.8883 96.2128 29.9628 95.4427 29.9628C94.4359 29.9628 93.4187 29.8188 92.3922 29.5307C91.3657 29.2428 90.4974 28.7314 89.7862 27.9966L92.4811 24.9877C92.8957 25.5041 93.3551 25.8963 93.8585 26.1644C94.362 26.4326 94.9496 26.5666 95.6205 26.5666C96.1342 26.5666 96.5974 26.4921 97.012 26.3431C97.4274 26.1943 97.6342 25.9211 97.6342 25.5239C97.6342 25.1466 97.4518 24.8636 97.0868 24.6749C96.721 24.4863 96.2568 24.3274 95.6945 24.1982C95.1321 24.0692 94.5295 23.9302 93.8875 23.7812C93.2466 23.6322 92.644 23.4089 92.0816 23.1109C91.5183 22.813 91.0551 22.391 90.6892 21.8449C90.3243 21.2987 90.1418 20.5688 90.1418 19.6553C90.1418 18.8012 90.314 18.0665 90.6602 17.4507C91.0055 16.835 91.4593 16.3286 92.0217 15.9314C92.585 15.5343 93.2316 15.2413 93.9624 15.0526C94.6923 14.8639 95.4324 14.7696 96.1829 14.7696C97.1308 14.7696 98.0881 14.9086 99.0556 15.1866C100.023 15.4647 100.843 15.9612 101.514 16.6762L98.7889 19.3872ZM104.772 15.1271H108.858V17.0337H108.918C109.096 16.7755 109.328 16.5124 109.614 16.2442C109.9 15.9761 110.236 15.7328 110.621 15.5143C111.006 15.2959 111.425 15.1172 111.88 14.9782C112.334 14.8391 112.817 14.7696 113.331 14.7696C114.397 14.7696 115.365 14.9534 116.233 15.3207C117.102 15.6882 117.847 16.2045 118.469 16.8698C119.091 17.5352 119.57 18.3246 119.906 19.2382C120.242 20.1518 120.409 21.1547 120.409 22.247C120.409 23.2599 120.256 24.2281 119.95 25.1516C119.644 26.0751 119.209 26.8943 118.647 27.6093C118.084 28.3243 117.398 28.8953 116.588 29.3222C115.779 29.7492 114.861 29.9628 113.835 29.9628C112.906 29.9628 112.043 29.8187 111.243 29.5307C110.443 29.2428 109.787 28.7513 109.274 28.0561H109.214V36.3974H104.772V15.1271ZM108.858 22.3662C108.858 23.4585 109.17 24.3423 109.791 25.0175C110.414 25.6928 111.288 26.0304 112.412 26.0304C113.538 26.0304 114.412 25.6928 115.033 25.0175C115.656 24.3423 115.966 23.4585 115.966 22.3662C115.966 21.2739 115.656 20.3901 115.033 19.7149C114.412 19.0396 113.538 18.702 112.412 18.702C111.288 18.702 110.414 19.0396 109.791 19.7149C109.17 20.3901 108.858 21.2739 108.858 22.3662ZM123.074 7.08374H127.517V29.6053H123.074V7.08374ZM144.576 29.6054H140.311V27.6392H140.252C140.093 27.9172 139.891 28.1952 139.644 28.4733C139.398 28.7513 139.097 28.9996 138.741 29.2181C138.386 29.4366 137.981 29.6153 137.527 29.7543C137.073 29.8933 136.58 29.9628 136.046 29.9628C134.921 29.9628 134.007 29.789 133.307 29.4415C132.606 29.0939 132.063 28.6124 131.678 27.9966C131.293 27.381 131.036 26.6561 130.908 25.822C130.78 24.9878 130.715 24.0841 130.715 23.111V15.1272H135.157V22.2174C135.157 22.6344 135.172 23.0663 135.202 23.5132C135.232 23.9601 135.321 24.3722 135.469 24.7495C135.617 25.1268 135.844 25.4347 136.15 25.673C136.456 25.9114 136.895 26.0305 137.468 26.0305C138.04 26.0305 138.505 25.9262 138.86 25.7177C139.216 25.5092 139.487 25.2311 139.674 24.8835C139.862 24.536 139.985 24.1438 140.045 23.7069C140.104 23.2699 140.134 22.8131 140.134 22.3365V15.1272H144.576V29.6054ZM155.859 19.3872C155.207 18.5729 154.349 18.1657 153.282 18.1657C152.907 18.1657 152.542 18.2551 152.187 18.4338C151.831 18.6126 151.653 18.9204 151.653 19.3573C151.653 19.7149 151.837 19.978 152.202 20.1468C152.567 20.3156 153.031 20.4646 153.593 20.5936C154.156 20.7227 154.758 20.8618 155.4 21.0107C156.042 21.1596 156.644 21.393 157.207 21.7108C157.769 22.0286 158.233 22.4605 158.598 23.0067C158.964 23.5528 159.147 24.2827 159.147 25.1962C159.147 26.1297 158.945 26.8993 158.539 27.505C158.134 28.1108 157.617 28.5973 156.984 28.9647C156.353 29.3322 155.642 29.5903 154.853 29.7393C154.063 29.8883 153.282 29.9628 152.512 29.9628C151.505 29.9628 150.488 29.8188 149.462 29.5307C148.435 29.2428 147.567 28.7314 146.856 27.9966L149.551 24.9877C149.965 25.5041 150.425 25.8963 150.928 26.1644C151.432 26.4326 152.019 26.5666 152.69 26.5666C153.204 26.5666 153.668 26.4921 154.083 26.3431C154.497 26.1943 154.704 25.9211 154.704 25.5239C154.704 25.1466 154.521 24.8636 154.156 24.6749C153.791 24.4863 153.327 24.3274 152.764 24.1982C152.202 24.0692 151.599 23.9302 150.958 23.7812C150.316 23.6322 149.714 23.4089 149.151 23.1109C148.589 22.813 148.125 22.391 147.759 21.8449C147.394 21.2987 147.211 20.5688 147.211 19.6553C147.211 18.8012 147.385 18.0665 147.73 17.4507C148.075 16.835 148.529 16.3286 149.092 15.9314C149.655 15.5343 150.301 15.2413 151.032 15.0526C151.762 14.8639 152.503 14.7696 153.253 14.7696C154.2 14.7696 155.159 14.9086 156.126 15.1866C157.093 15.4647 157.912 15.9612 158.583 16.6762L155.859 19.3872Z" fill="black"/>
<path fill-rule="evenodd" clip-rule="evenodd" d="M47.317 13.9952C46.8629 13.4391 46.3052 13.0121 45.6437 12.7141C44.9823 12.4162 44.2173 12.2673 43.3485 12.2673C42.4798 12.2673 41.6753 12.4361 40.9348 12.7738C40.1944 13.1114 39.5527 13.5831 39.0098 14.1888C38.4668 14.7945 38.0423 15.5144 37.7363 16.3485C37.4303 17.1828 37.2773 18.0864 37.2773 19.0595C37.2773 20.0526 37.4303 20.9612 37.7363 21.7854C38.0423 22.6096 38.4618 23.3245 38.9949 23.9303C39.528 24.536 40.155 25.0077 40.8756 25.3453C41.5963 25.6829 42.3712 25.8517 43.2004 25.8517C44.1481 25.8517 44.9873 25.6531 45.7178 25.2559C46.4483 24.8587 47.0505 24.3026 47.5244 23.5877L51.3744 26.4773C50.486 27.7285 49.3605 28.652 47.9982 29.2479C46.6359 29.8436 45.234 30.1416 43.7927 30.1416C42.154 30.1416 40.6436 29.8834 39.2615 29.367C37.8794 28.8506 36.685 28.1108 35.678 27.1476C34.6711 26.1843 33.8862 25.0176 33.3235 23.6472C32.7608 22.2769 32.4795 20.7476 32.4795 19.0595C32.4795 17.3714 32.7608 15.8421 33.3235 14.4718C33.8862 13.1014 34.6711 11.9347 35.678 10.9714C36.685 10.0082 37.8794 9.26839 39.2615 8.75203C40.6436 8.23565 42.154 7.97748 43.7927 7.97748C44.3851 7.97748 45.0021 8.03209 45.6437 8.14132C46.2854 8.25055 46.9172 8.42433 47.5391 8.66266C48.1611 8.90098 48.7583 9.2187 49.3309 9.61592C49.9035 10.0131 50.4168 10.4997 50.8709 11.0757L47.317 13.9952ZM53.3881 7.08374H57.8305V29.6053H53.3881V7.08374ZM70.0621 27.788H70.0028C69.5092 28.5626 68.8528 29.1186 68.0334 29.4562C67.2141 29.794 66.3503 29.9628 65.4421 29.9628C64.7708 29.9628 64.1241 29.8683 63.5022 29.6797C62.8802 29.4911 62.3323 29.208 61.8585 28.8307C61.3846 28.4533 61.0095 27.9867 60.7331 27.4306C60.4567 26.8745 60.3184 26.229 60.3184 25.4942C60.3184 24.66 60.4715 23.955 60.7775 23.379C61.0836 22.8031 61.4982 22.3264 62.0214 21.9491C62.5447 21.5717 63.1418 21.2788 63.8131 21.0703C64.4844 20.8618 65.1804 20.7079 65.901 20.6085C66.6218 20.5092 67.3424 20.4497 68.0631 20.4298C68.7837 20.4099 69.45 20.4 70.0621 20.4C70.0621 19.6056 69.7808 18.9751 69.218 18.5083C68.6554 18.0416 67.989 17.8082 67.219 17.8082C66.4885 17.8082 65.8221 17.9621 65.2199 18.27C64.6177 18.5778 64.0797 18.9999 63.6059 19.536L61.2366 17.0933C62.0658 16.3187 63.0333 15.7378 64.139 15.3505C65.2446 14.9633 66.3898 14.7696 67.5744 14.7696C68.8775 14.7696 69.9486 14.9334 70.7877 15.2611C71.6268 15.5888 72.2981 16.0704 72.8016 16.706C73.3051 17.3415 73.6555 18.121 73.8529 19.0445C74.0504 19.9681 74.1491 21.0356 74.1491 22.247V29.6052H70.0621V27.788ZM68.9664 23.2599C68.6308 23.2599 68.2112 23.2748 67.7077 23.3046C67.2043 23.3344 66.7206 23.4188 66.2565 23.5578C65.7926 23.6969 65.3977 23.9054 65.0719 24.1835C64.7462 24.4615 64.5833 24.8488 64.5833 25.3453C64.5833 25.8815 64.8103 26.2787 65.2644 26.5368C65.7185 26.795 66.1924 26.9241 66.686 26.9241C67.1203 26.9241 67.5399 26.8645 67.9446 26.7454C68.3494 26.6262 68.7098 26.4574 69.0257 26.239C69.3416 26.0205 69.5933 25.7425 69.7808 25.4048C69.9684 25.0672 70.0622 24.67 70.0622 24.2132V23.2599H68.9664ZM85.0779 19.3872C84.4256 18.5729 83.5666 18.1657 82.5008 18.1657C82.1256 18.1657 81.7607 18.2551 81.4051 18.4338C81.0495 18.6126 80.8717 18.9204 80.8717 19.3573C80.8717 19.7149 81.0551 19.978 81.4201 20.1468C81.785 20.3156 82.2491 20.4646 82.8115 20.5936C83.3748 20.7227 83.9765 20.8618 84.6184 21.0107C85.2603 21.1596 85.862 21.393 86.4253 21.7108C86.9877 22.0286 87.4518 22.4605 87.8168 23.0067C88.1826 23.5528 88.3651 24.2827 88.3651 25.1962C88.3651 26.1297 88.162 26.8993 87.7578 27.505C87.3526 28.1108 86.8352 28.5973 86.2026 28.9647C85.571 29.3322 84.8608 29.5903 84.071 29.7393C83.2812 29.8883 82.5008 29.9628 81.7307 29.9628C80.7239 29.9628 79.7067 29.8188 78.6802 29.5307C77.6537 29.2428 76.7851 28.7314 76.0743 27.9966L78.7691 24.9877C79.1837 25.5041 79.6431 25.8963 80.1465 26.1644C80.65 26.4326 81.2376 26.5666 81.9085 26.5666C82.4222 26.5666 82.8864 26.4921 83.3009 26.3431C83.7154 26.1943 83.9222 25.9211 83.9222 25.5239C83.9222 25.1466 83.7398 24.8636 83.3748 24.6749C83.0089 24.4863 82.5458 24.3274 81.9824 24.1982C81.4201 24.0692 80.8174 23.9302 80.1765 23.7812C79.5346 23.6322 78.9319 23.4089 78.3696 23.1109C77.8072 22.813 77.3431 22.391 76.9776 21.8449C76.6123 21.2987 76.4297 20.5688 76.4297 19.6553C76.4297 18.8012 76.6024 18.0665 76.9479 17.4507C77.2935 16.835 77.7473 16.3286 78.3106 15.9314C78.873 15.5343 79.5196 15.2413 80.2504 15.0526C80.9803 14.8639 81.7214 14.7696 82.4709 14.7696C83.4188 14.7696 84.377 14.9086 85.3436 15.1866C86.3112 15.4647 87.1309 15.9612 87.8018 16.6762L85.0779 19.3872ZM98.7889 19.3872C98.1377 18.5729 97.2787 18.1657 96.2128 18.1657C95.8376 18.1657 95.4727 18.2551 95.1171 18.4338C94.7615 18.6126 94.5837 18.9204 94.5837 19.3573C94.5837 19.7149 94.7662 19.978 95.1321 20.1468C95.497 20.3156 95.9611 20.4646 96.5235 20.5936C97.0868 20.7227 97.6885 20.8618 98.3304 21.0107C98.9723 21.1596 99.574 21.393 100.137 21.7108C100.7 22.0286 101.164 22.4605 101.529 23.0067C101.894 23.5528 102.077 24.2827 102.077 25.1962C102.077 26.1297 101.874 26.8993 101.47 27.505C101.065 28.1108 100.546 28.5973 99.9146 28.9647C99.283 29.3322 98.5718 29.5903 97.7821 29.7393C96.9923 29.8883 96.2128 29.9628 95.4427 29.9628C94.4359 29.9628 93.4187 29.8188 92.3922 29.5307C91.3657 29.2428 90.4974 28.7314 89.7862 27.9966L92.4811 24.9877C92.8957 25.5041 93.3551 25.8963 93.8585 26.1644C94.362 26.4326 94.9496 26.5666 95.6205 26.5666C96.1342 26.5666 96.5974 26.4921 97.012 26.3431C97.4274 26.1943 97.6342 25.9211 97.6342 25.5239C97.6342 25.1466 97.4518 24.8636 97.0868 24.6749C96.721 24.4863 96.2568 24.3274 95.6945 24.1982C95.1321 24.0692 94.5295 23.9302 93.8875 23.7812C93.2466 23.6322 92.644 23.4089 92.0816 23.1109C91.5183 22.813 91.0551 22.391 90.6892 21.8449C90.3243 21.2987 90.1418 20.5688 90.1418 19.6553C90.1418 18.8012 90.314 18.0665 90.6602 17.4507C91.0055 16.835 91.4593 16.3286 92.0217 15.9314C92.585 15.5343 93.2316 15.2413 93.9624 15.0526C94.6923 14.8639 95.4324 14.7696 96.1829 14.7696C97.1308 14.7696 98.0881 14.9086 99.0556 15.1866C100.023 15.4647 100.843 15.9612 101.514 16.6762L98.7889 19.3872ZM104.772 15.1271H108.858V17.0337H108.918C109.096 16.7755 109.328 16.5124 109.614 16.2442C109.9 15.9761 110.236 15.7328 110.621 15.5143C111.006 15.2959 111.425 15.1172 111.88 14.9782C112.334 14.8391 112.817 14.7696 113.331 14.7696C114.397 14.7696 115.365 14.9534 116.233 15.3207C117.102 15.6882 117.847 16.2045 118.469 16.8698C119.091 17.5352 119.57 18.3246 119.906 19.2382C120.242 20.1518 120.409 21.1547 120.409 22.247C120.409 23.2599 120.256 24.2281 119.95 25.1516C119.644 26.0751 119.209 26.8943 118.647 27.6093C118.084 28.3243 117.398 28.8953 116.588 29.3222C115.779 29.7492 114.861 29.9628 113.835 29.9628C112.906 29.9628 112.043 29.8187 111.243 29.5307C110.443 29.2428 109.787 28.7513 109.274 28.0561H109.214V36.3974H104.772V15.1271ZM108.858 22.3662C108.858 23.4585 109.17 24.3423 109.791 25.0175C110.414 25.6928 111.288 26.0304 112.412 26.0304C113.538 26.0304 114.412 25.6928 115.033 25.0175C115.656 24.3423 115.966 23.4585 115.966 22.3662C115.966 21.2739 115.656 20.3901 115.033 19.7149C114.412 19.0396 113.538 18.702 112.412 18.702C111.288 18.702 110.414 19.0396 109.791 19.7149C109.17 20.3901 108.858 21.2739 108.858 22.3662ZM123.074 7.08374H127.517V29.6053H123.074V7.08374ZM144.576 29.6054H140.311V27.6392H140.252C140.093 27.9172 139.891 28.1952 139.644 28.4733C139.398 28.7513 139.097 28.9996 138.741 29.2181C138.386 29.4366 137.981 29.6153 137.527 29.7543C137.073 29.8933 136.58 29.9628 136.046 29.9628C134.921 29.9628 134.007 29.789 133.307 29.4415C132.606 29.0939 132.063 28.6124 131.678 27.9966C131.293 27.381 131.036 26.6561 130.908 25.822C130.78 24.9878 130.715 24.0841 130.715 23.111V15.1272H135.157V22.2174C135.157 22.6344 135.172 23.0663 135.202 23.5132C135.232 23.9601 135.321 24.3722 135.469 24.7495C135.617 25.1268 135.844 25.4347 136.15 25.673C136.456 25.9114 136.895 26.0305 137.468 26.0305C138.04 26.0305 138.505 25.9262 138.86 25.7177C139.216 25.5092 139.487 25.2311 139.674 24.8835C139.862 24.536 139.985 24.1438 140.045 23.7069C140.104 23.2699 140.134 22.8131 140.134 22.3365V15.1272H144.576V29.6054ZM155.859 19.3872C155.207 18.5729 154.349 18.1657 153.282 18.1657C152.907 18.1657 152.542 18.2551 152.187 18.4338C151.831 18.6126 151.653 18.9204 151.653 19.3573C151.653 19.7149 151.837 19.978 152.202 20.1468C152.567 20.3156 153.031 20.4646 153.593 20.5936C154.156 20.7227 154.758 20.8618 155.4 21.0107C156.042 21.1596 156.644 21.393 157.207 21.7108C157.769 22.0286 158.233 22.4605 158.598 23.0067C158.964 23.5528 159.147 24.2827 159.147 25.1962C159.147 26.1297 158.945 26.8993 158.539 27.505C158.134 28.1108 157.617 28.5973 156.984 28.9647C156.353 29.3322 155.642 29.5903 154.853 29.7393C154.063 29.8883 153.282 29.9628 152.512 29.9628C151.505 29.9628 150.488 29.8188 149.462 29.5307C148.435 29.2428 147.567 28.7314 146.856 27.9966L149.551 24.9877C149.965 25.5041 150.425 25.8963 150.928 26.1644C151.432 26.4326 152.019 26.5666 152.69 26.5666C153.204 26.5666 153.668 26.4921 154.083 26.3431C154.497 26.1943 154.704 25.9211 154.704 25.5239C154.704 25.1466 154.521 24.8636 154.156 24.6749C153.791 24.4863 153.327 24.3274 152.764 24.1982C152.202 24.0692 151.599 23.9302 150.958 23.7812C150.316 23.6322 149.714 23.4089 149.151 23.1109C148.589 22.813 148.125 22.391 147.759 21.8449C147.394 21.2987 147.211 20.5688 147.211 19.6553C147.211 18.8012 147.385 18.0665 147.73 17.4507C148.075 16.835 148.529 16.3286 149.092 15.9314C149.655 15.5343 150.301 15.2413 151.032 15.0526C151.762 14.8639 152.503 14.7696 153.253 14.7696C154.2 14.7696 155.159 14.9086 156.126 15.1866C157.093 15.4647 157.912 15.9612 158.583 16.6762L155.859 19.3872Z" fill="#2D2D45"/>
<path fill-rule="evenodd" clip-rule="evenodd" d="M1.63646 25.9499L17.9577 9.62865C18.2796 9.30667 18.8033 9.30845 19.1273 9.63249L26.1687 16.6737C27.1409 17.6459 27.146 19.217 26.1803 20.1827L9.85905 36.504C9.53706 36.8259 9.01343 36.8242 8.68938 36.5001L1.64806 29.4589C0.675922 28.4866 0.670682 26.9156 1.63646 25.9499Z" fill="url(#paint0_linear_42_877)"/>
<path fill-rule="evenodd" clip-rule="evenodd" d="M16.2553 25.4135L1.58608 10.7441C0.613852 9.77198 0.608706 8.20091 1.57448 7.23513L8.56929 0.240317C8.89119 -0.0816111 9.41492 -0.079878 9.73897 0.244187L26.1685 16.6738C27.1408 17.646 27.1459 19.217 26.1801 20.1828L19.1853 27.1776L16.8537 29.5093C17.8195 28.5434 17.8144 26.9724 16.8421 26.0002L16.2553 25.4135Z" fill="url(#paint1_linear_42_877)"/>
<defs>
<linearGradient id="paint0_linear_42_877" x1="14.6057" y1="43.1258" x2="29.0711" y2="30.0733" gradientUnits="userSpaceOnUse">
<stop stop-color="#00749B"/>
<stop offset="1" stop-color="#005077"/>
</linearGradient>
<linearGradient id="paint1_linear_42_877" x1="-10.21" y1="21.3685" x2="10.5772" y2="37.5649" gradientUnits="userSpaceOnUse">
<stop stop-color="#00CAF2"/>
<stop offset="1" stop-color="#009AE0"/>
</linearGradient>
</defs>
</svg>
