<svg width="24" height="24" viewBox="0 0 24 24" fill="none" xmlns="http://www.w3.org/2000/svg">
<path d="M12.087 21.9997C11.9622 22.0001 11.8391 21.9706 11.728 21.9137L8.12604 20.0497C7.10404 19.5197 6.30504 18.9257 5.68104 18.2337C4.31504 16.7197 3.55504 14.7757 3.54304 12.7597L3.50004 6.12365C3.49504 5.35765 3.98904 4.67065 4.72804 4.41165L11.34 2.10665C11.733 1.96665 12.171 1.96465 12.57 2.09965L19.207 4.32665C19.95 4.57465 20.452 5.25765 20.456 6.02165L20.498 12.6627C20.511 14.6757 19.777 16.6277 18.432 18.1577C17.815 18.8597 17.022 19.4627 16.011 20.0017L12.442 21.9077C12.331 21.9677 12.208 21.9977 12.085 21.9987" fill="#1EC86C"/>
<path d="M11.3191 14.3187C11.1261 14.3197 10.9321 14.2497 10.7831 14.1067L8.8661 12.2627C8.79569 12.1959 8.7395 12.1156 8.70093 12.0265C8.66235 11.9374 8.64217 11.8415 8.64161 11.7445C8.64105 11.6474 8.66012 11.5513 8.69767 11.4618C8.73521 11.3723 8.79046 11.2913 8.8601 11.2237C9.00266 11.0846 9.19355 11.0062 9.39269 11.0049C9.59183 11.0036 9.78373 11.0795 9.9281 11.2167L11.3071 12.5427L14.6741 9.22268C14.8167 9.08363 15.0076 9.00523 15.2067 9.00392C15.4058 9.00262 15.5977 9.07852 15.7421 9.21568C15.8126 9.2824 15.8688 9.36269 15.9075 9.45171C15.9462 9.54072 15.9664 9.63664 15.9671 9.73369C15.9677 9.83074 15.9488 9.92692 15.9113 10.0165C15.8738 10.106 15.8187 10.187 15.7491 10.2547L11.8511 14.0997C11.7091 14.2398 11.5176 14.3185 11.3181 14.3187" fill="white"/>
</svg>
