<svg width="16" height="16" viewBox="0 0 16 16" fill="none" xmlns="http://www.w3.org/2000/svg">
<path d="M8.05794 14.6666C7.97473 14.6669 7.89265 14.6473 7.81861 14.6093L5.41728 13.3666C4.73594 13.0133 4.20328 12.6173 3.78728 12.1559C2.87661 11.1466 2.36994 9.8506 2.36194 8.5066L2.33328 4.0826C2.32994 3.57193 2.65928 3.11393 3.15194 2.94126L7.55994 1.4046C7.82194 1.31126 8.11394 1.30993 8.37994 1.39993L12.8046 2.8846C13.2999 3.04993 13.6346 3.50526 13.6373 4.0146L13.6653 8.44193C13.6739 9.78393 13.1846 11.0853 12.2879 12.1053C11.8766 12.5733 11.3479 12.9753 10.6739 13.3346L8.29461 14.6053C8.22061 14.6453 8.13861 14.6653 8.05661 14.6659" fill="#1EC86C"/>
<path d="M7.54599 9.54611C7.41732 9.54678 7.28799 9.50011 7.18865 9.40478L5.91065 8.17545C5.86371 8.13092 5.82626 8.07736 5.80054 8.01799C5.77482 7.95862 5.76137 7.89467 5.76099 7.82997C5.76062 7.76527 5.77333 7.70116 5.79836 7.6415C5.82339 7.58183 5.86023 7.52785 5.90665 7.48278C6.00169 7.39008 6.12895 7.33781 6.26171 7.33694C6.39447 7.33607 6.52241 7.38667 6.61865 7.47811L7.53799 8.36211L9.78265 6.14878C9.87769 6.05608 10.005 6.00381 10.1377 6.00294C10.2705 6.00207 10.3984 6.05267 10.4947 6.14411C10.5416 6.1886 10.5791 6.24212 10.6049 6.30146C10.6307 6.36081 10.6442 6.42475 10.6446 6.48945C10.6451 6.55415 10.6324 6.61827 10.6075 6.67796C10.5825 6.73765 10.5457 6.79167 10.4993 6.83678L7.90065 9.40011C7.80597 9.49354 7.67834 9.54598 7.54532 9.54611" fill="white"/>
</svg>
